<svg width="31" height="40" viewBox="0 0 31 40" fill="none" xmlns="http://www.w3.org/2000/svg">
<path d="M25.8289 37.4754C23.8259 39.4807 21.6389 39.1641 19.5337 38.2142C17.3059 37.2432 15.262 37.201 12.9115 38.2142C9.96826 39.5229 8.4149 39.143 6.65714 37.4754C-3.31709 26.8578 -1.84548 10.6888 9.47773 10.0977C12.237 10.2455 14.1583 11.6598 15.7729 11.7864C18.1847 11.2798 20.4944 9.82333 23.0697 10.0133C26.156 10.2666 28.486 11.5331 30.0189 13.8128C23.642 17.7601 25.1544 26.4357 31 28.8631C29.835 32.0294 28.3225 35.1746 25.8085 37.4965L25.8289 37.4754ZM15.5686 9.97109C15.262 5.26391 18.9614 1.37995 23.2127 1C23.8055 6.44598 18.43 10.4988 15.5686 9.97109Z" fill="#0D141C"/>
</svg>
