<svg width="40" height="40" viewBox="0 0 40 40" fill="none" xmlns="http://www.w3.org/2000/svg">
<path d="M35 10.4412C33.8958 10.9559 32.7055 11.2941 31.4723 11.4559C32.7342 10.6765 33.7094 9.44118 34.1683 7.95588C32.978 8.69118 31.6587 9.20588 30.2677 9.5C29.1348 8.23529 27.543 7.5 25.7361 7.5C22.3662 7.5 19.6128 10.3235 19.6128 13.8088C19.6128 14.3088 19.6702 14.7941 19.7706 15.25C14.6654 14.9853 10.1195 12.4706 7.09369 8.66176C6.5631 9.58824 6.26195 10.6765 6.26195 11.8235C6.26195 14.0147 7.33748 15.9559 9.00096 17.0588C7.98279 17.0588 7.03633 16.7647 6.20459 16.3235V16.3676C6.20459 19.4265 8.32696 21.9853 11.1377 22.5588C10.2354 22.8131 9.28782 22.8484 8.36998 22.6618C8.75947 23.9154 9.52228 25.0124 10.5512 25.7984C11.5801 26.5845 12.8233 27.0201 14.1061 27.0441C11.9316 28.8096 9.23615 29.7638 6.46272 29.75C5.97514 29.75 5.48757 29.7206 5 29.6618C7.72467 31.4559 10.9656 32.5 14.4359 32.5C25.7361 32.5 31.9455 22.8824 31.9455 14.5441C31.9455 14.2647 31.9455 14 31.9312 13.7206C33.1358 12.8382 34.1683 11.7206 35 10.4412Z" fill="#0D141C"/>
</svg>
