<svg width="40" height="40" viewBox="0 0 40 40" fill="none" xmlns="http://www.w3.org/2000/svg">
<path d="M17 24.5L24.785 20L17 15.5V24.5ZM34.34 12.755C34.535 13.46 34.67 14.405 34.76 15.605C34.865 16.805 34.91 17.84 34.91 18.74L35 20C35 23.285 34.76 25.7 34.34 27.245C33.965 28.595 33.095 29.465 31.745 29.84C31.04 30.035 29.75 30.17 27.77 30.26C25.82 30.365 24.035 30.41 22.385 30.41L20 30.5C13.715 30.5 9.8 30.26 8.255 29.84C6.905 29.465 6.035 28.595 5.66 27.245C5.465 26.54 5.33 25.595 5.24 24.395C5.135 23.195 5.09 22.16 5.09 21.26L5 20C5 16.715 5.24 14.3 5.66 12.755C6.035 11.405 6.905 10.535 8.255 10.16C8.96 9.965 10.25 9.83 12.23 9.74C14.18 9.635 15.965 9.59 17.615 9.59L20 9.5C26.285 9.5 30.2 9.74 31.745 10.16C33.095 10.535 33.965 11.405 34.34 12.755Z" fill="#0D141C"/>
</svg>
